<svg width="35" height="28" viewBox="0 0 35 28" fill="none" xmlns="http://www.w3.org/2000/svg">
  <path d="M19.9544 4.39418L28.2588 13.7574L14.6812 17.5768L7.21856 8.25264L19.9544 4.39418ZM14.8196 16.9009L23.1784 14.5495L19.0249 9.87054L10.9768 12.0996L14.8196 16.9009ZM19.1461 9.20351L23.7493 14.388L27.2329 13.4079L19.8312 5.06298L8.17041 8.59591L10.5592 11.5807L19.1461 9.20351Z" fill="#444BFF"/>
  <path d="M21.273 0L35 15.4214L34.5536 21.3182L12.5097 28L0 11.9763L0.458879 5.89502L21.273 0ZM34.1307 20.8082L34.4992 15.9439L13.3553 21.9258L12.8486 27.2594L34.1307 20.8082ZM13.219 21.3306L34.2448 15.3806L21.1504 0.668798L1.15638 6.3332L13.219 21.3306ZM0.481821 11.735L12.4127 27.0137L12.9089 21.7883L0.856797 6.79799L0.481821 11.735Z" fill="#444BFF"/>
  <path d="M12.8485 27.2593L34.1307 20.8082L34.4991 15.9439L13.3553 21.9267L12.8485 27.2593Z" fill="#444BFF"/>
  <path d="M0.853498 6.79973L0.479843 11.735L12.4094 27.0136L12.9056 21.7883L0.853498 6.79973Z" fill="#444BFF"/>
  <path d="M21.1503 0.668762L34.2447 15.3806L13.2149 21.3306L1.15299 6.33316L21.1503 0.668762ZM14.6807 17.5768L28.2583 13.7574L19.9539 4.39417L7.21806 8.25263L14.6807 17.5768Z" fill="white"/>
  <path d="M8.17255 8.59952L10.5613 11.5843L19.1483 9.20711L23.7515 14.3916L27.235 13.4115L19.8333 5.06659L8.17255 8.59952Z" fill="#444BFF"/>
</svg>
